/* XPM */
static char *wheel0[] = {
"20 20 5 1",
". 	c None",
"x      c #00ff00",
"M      c #ff0000",
"o      c #0000ff",
"#	c #ff00ff",
"......xxxx####......",
"....xxxxxx######....",
"...xxxxxxx#######...",
"..xxxxxxxx########..",
".xxxxxxxxx#########.",
".xxxxxxxxx#########.",
"xxxxxxxxxx##########",
"xxxxxxxxxx##########",
"xxxxxxxxxx##########",
"xxxxxxxxxx##########",
"MMMMMMMMMMoooooooooo",
"MMMMMMMMMMoooooooooo",
"MMMMMMMMMMoooooooooo",
"MMMMMMMMMMoooooooooo",
".MMMMMMMMMooooooooo.",
".MMMMMMMMMooooooooo.",
"..MMMMMMMMoooooooo..",
"...MMMMMMMooooooo...",
"....MMMMMMoooooo....",
"......MMMMoooo......"};

static char *wheel1[] = {
"20 20 5 1",
".      c None",
"M      c #00ff00",
"o      c #ff0000",
"#      c #0000ff",
"x	c #ff00ff",
"......xxxx####......",
"....xxxxxx######....",
"...xxxxxxx#######...",
"..xxxxxxxx########..",
".xxxxxxxxx#########.",
".xxxxxxxxx#########.",
"xxxxxxxxxx##########",
"xxxxxxxxxx##########",
"xxxxxxxxxx##########",
"xxxxxxxxxx##########",
"MMMMMMMMMMoooooooooo",
"MMMMMMMMMMoooooooooo",
"MMMMMMMMMMoooooooooo",
"MMMMMMMMMMoooooooooo",
".MMMMMMMMMooooooooo.",
".MMMMMMMMMooooooooo.",
"..MMMMMMMMoooooooo..",
"...MMMMMMMooooooo...",
"....MMMMMMoooooo....",
"......MMMMoooo......"};

static char *wheel2[] = {
"20 20 5 1",
".      c None",
"o      c #00ff00",
"#      c #ff0000",
"x      c #0000ff",
"M	c #ff00ff",
"......xxxx####......",
"....xxxxxx######....",
"...xxxxxxx#######...",
"..xxxxxxxx########..",
".xxxxxxxxx#########.",
".xxxxxxxxx#########.",
"xxxxxxxxxx##########",
"xxxxxxxxxx##########",
"xxxxxxxxxx##########",
"xxxxxxxxxx##########",
"MMMMMMMMMMoooooooooo",
"MMMMMMMMMMoooooooooo",
"MMMMMMMMMMoooooooooo",
"MMMMMMMMMMoooooooooo",
".MMMMMMMMMooooooooo.",
".MMMMMMMMMooooooooo.",
"..MMMMMMMMoooooooo..",
"...MMMMMMMooooooo...",
"....MMMMMMoooooo....",
"......MMMMoooo......"};

static char *wheel3[] = {
"20 20 5 1",
".      c None",
"#      c #00ff00",
"x      c #ff0000",
"M      c #0000ff",
"o	c #ff00ff",
"......xxxx####......",
"....xxxxxx######....",
"...xxxxxxx#######...",
"..xxxxxxxx########..",
".xxxxxxxxx#########.",
".xxxxxxxxx#########.",
"xxxxxxxxxx##########",
"xxxxxxxxxx##########",
"xxxxxxxxxx##########",
"xxxxxxxxxx##########",
"MMMMMMMMMMoooooooooo",
"MMMMMMMMMMoooooooooo",
"MMMMMMMMMMoooooooooo",
"MMMMMMMMMMoooooooooo",
".MMMMMMMMMooooooooo.",
".MMMMMMMMMooooooooo.",
"..MMMMMMMMoooooooo..",
"...MMMMMMMooooooo...",
"....MMMMMMoooooo....",
"......MMMMoooo......"};
